#!OML:ASF G:\ViconDB\ViconDB\414\test\team2\shane.ASF
:FULLY-SPECIFIED
:DEGREES
228
root 8.13599 16.2963 0.623193 170.842 239.095 -169.717
lowerback 13.075 1.80101 8.74915
upperback 5.13175 3.32882 2.3267
thorax -1.52007 1.65894 -2.93131
lowerneck -22.1254 11.2027 4.05594
upperneck 8.50352 15.6641 -11.78
head 7.47012 6.58073 -2.3967
rclavicle 2.50469e-014 2.06736e-014
rhumerus -35.3509 7.9147 -73.3956
rradius 42.7798
rwrist 25.2374
rhand -35.9796 -17.1454
rfingers 7.12502
rthumb -9.0901 -406.93
lclavicle 2.50469e-014 2.06736e-014
lhumerus -39.5235 -26.7805 99.7082
lradius 50.3892
lwrist -14.0823
lhand -47.5583 5.23465
lfingers 7.12502
lthumb -20.2439 34.1997
rfemur -2.5976 -24.2551 -3.66869
rtibia 35.6705
rfoot -26.3823 -25.7616
rtoes -5.49281
lfemur -18.2757 22.5063 -12.6758
ltibia 42.7852
lfoot -21.2862 -0.608741
ltoes -12.7596
229
root 8.13974 16.2197 0.82398 171.49 238.005 -170.817
lowerback 13.0208 1.8753 8.18958
upperback 5.18842 3.35488 2.35153
thorax -1.46874 1.67092 -2.59537
lowerneck -21.9116 11.1204 4.06068
upperneck 8.46208 15.5158 -11.5726
head 7.39022 6.54298 -2.36465
rclavicle 5.60573e-014 3.02153e-014
rhumerus -34.7818 7.99597 -73.1814
rradius 43.7463
rwrist 24.8616
rhand -36.6668 -16.4342
rfingers 7.12502
rthumb -9.75322 -406.188
lclavicle 5.60573e-014 3.02153e-014
lhumerus -40.0151 -27.2707 99.5948
lradius 50.4882
lwrist -16.201
lhand -48.1181 7.65746
lfingers 7.12502
lthumb -20.7819 36.5646
rfemur -1.45563 -24.0082 -4.33218
rtibia 35.7802
rfoot -25.7997 -25.0111
rtoes -5.00031
lfemur -18.1542 21.7459 -13.0497
ltibia 43.3312
lfoot -22.7335 0.123498
ltoes -13.0184
230
root 8.1449 16.1853 1.02891 171.341 236.811 -170.958
lowerback 13.0045 1.94927 7.50415
upperback 5.3234 3.35952 2.07579
thorax -1.34707 1.67915 -2.49978
lowerneck -21.69 10.9602 4.0825
upperneck 7.9295 15.2143 -11.5006
head 7.15088 6.4414 -2.41099
rclavicle 9.54166e-014 3.02153e-014
rhumerus -33.9896 7.40349 -73.1548
rradius 44.8616
rwrist 24.6581
rhand -36.9123 -17.0588
rfingers 7.12502
rthumb -9.99006 -406.802
lclavicle 9.54166e-014 3.02153e-014
lhumerus -40.0552 -28.0477 99.3524
lradius 51.567
lwrist -12.8975
lhand -47.1697 6.01469
lfingers 7.12502
lthumb -19.8705 35.0189
rfemur -0.42292 -24.099 -5.56233
rtibia 35.871
rfoot -24.4635 -24.3562
rtoes -6.07413
lfemur -18.211 20.6276 -13.979
ltibia 44.2692
lfoot -23.7908 1.04942
ltoes -13.9104
231
root 8.15558 16.1505 1.21607 170.707 235.073 -170.425
lowerback 13.0095 1.90075 6.24914
upperback 5.4793 3.13974 1.83544
thorax -1.27366 1.56549 -2.02201
lowerneck -21.2039 10.8846 4.04048
upperneck 6.86838 15.0722 -11.9831
head 6.76049 6.39705 -2.61628
rclavicle -5.28767e-014 -4.29375e-014
rhumerus -32.9722 6.87541 -73.0758
rradius 45.1847
rwrist 24.1923
rhand -36.7503 -17.2089
rfingers 7.12502
rthumb -9.83373 -406.959
lclavicle -5.28767e-014 -4.29375e-014
lhumerus -39.9774 -28.7131 99.1824
lradius 51.9896
lwrist -12.2569
lhand -47.1475 6.20685
lfingers 7.12502
lthumb -19.8491 35.2133
rfemur 0.679093 -23.7954 -7.15295
rtibia 36.1306
rfoot -23.8132 -23.5857
rtoes -6.34308
lfemur -18.4656 18.7276 -15.242
ltibia 45.4544
lfoot -24.7107 1.13272
ltoes -13.0636
232
root 8.16881 16.1102 1.38134 169.617 232.898 -169.322
lowerback 13.1465 1.80952 4.65236
upperback 5.70928 2.82757 1.57618
thorax -1.20848 1.39825 -1.36161
lowerneck -21.0748 10.8623 3.79395
upperneck 6.37068 15.1237 -12.5107
head 6.61708 6.39773 -2.75075
rclavicle -1.31198e-013 6.36111e-015
rhumerus -31.9814 5.47979 -72.8066
rradius 45.773
rwrist 24.9461
rhand -36.4698 -18.5036
rfingers 7.12502
rthumb -9.56307 -408.267
lclavicle -1.31198e-013 6.36111e-015
lhumerus -39.4119 -29.4576 99.0499
lradius 51.3837
lwrist -14.3769
lhand -47.6815 8.34566
lfingers 7.12502
lthumb -20.3624 37.2981
rfemur 1.62955 -23.2892 -8.95618
rtibia 36.5589
rfoot -22.7519 -23.8125
rtoes -7.37796
lfemur -18.8221 17.7316 -16.8936
ltibia 46.6687
lfoot -25.7524 0.0155081
ltoes -12.326
233
root 8.17814 16.0742 1.52523 168.89 230.599 -168.862
lowerback 13.6113 1.64299 3.34614
upperback 5.89995 2.46648 1.54016
thorax -1.34059 1.19888 -0.632115
lowerneck -21.2243 10.6582 2.94477
upperneck 6.5148 15.0694 -12.381
head 6.61029 6.34664 -2.58674
rclavicle 6.79844e-014 -2.54444e-014
rhumerus -31.4607 3.65752 -72.3677
rradius 46.7517
rwrist 26.1779
rhand -36.4682 -19.3916
rfingers 7.12502
rthumb -9.5616 -409.155
lclavicle 6.79844e-014 -2.54444e-014
lhumerus -38.6392 -30.4349 99.1676
lradius 50.7073
lwrist -13.4563
lhand -47.8536 7.79545
lfingers 7.12502
lthumb -20.5278 36.7302
rfemur 2.6948 -21.9467 -10.0426
rtibia 37.237
rfoot -23.028 -23.9169
rtoes -7.55772
lfemur -18.8279 17.3995 -17.9923
ltibia 47.5929
lfoot -26.6245 -1.89867
ltoes -11.7923
234
root 8.18243 16.057 1.66202 169.443 228.65 -170.15
lowerback 14.1452 1.46265 3.40001
upperback 6.0761 2.25382 1.73678
thorax -1.45384 1.0888 -0.439787
lowerneck -21.2384 10.4023 2.28284
upperneck 6.76277 14.939 -12.42
head 6.64135 6.24967 -2.51579
rclavicle 5.1684e-015 -5.725e-014
rhumerus -30.9842 2.34065 -72.2911
rradius 47.1429
rwrist 25.8147
rhand -37.0055 -20.3554
rfingers 7.12502
rthumb -10.08 -410.094
lclavicle 5.1684e-015 -5.725e-014
lhumerus -37.5347 -31.6107 99.1297
lradius 49.2473
lwrist -13.8617
lhand -48.1022 8.52093
lfingers 7.12502
lthumb -20.7666 37.4297
rfemur 3.54961 -20.0161 -9.33118
rtibia 38.0891
rfoot -23.7072 -24.656
rtoes -6.8366
lfemur -18.5782 18.0253 -17.6262
ltibia 48.2338
lfoot -27.4058 -4.53229
ltoes -11.5126
235
root 8.18203 16.0642 1.80016 170.432 227.085 -171.789
lowerback 14.2851 1.36901 3.90386
upperback 6.24085 2.19868 1.98715
thorax -1.34452 1.06763 -0.45368
lowerneck -21.3766 10.1818 1.89985
upperneck 7.16017 14.8412 -12.6925
head 6.78651 6.14028 -2.54558
rclavicle 1.08934e-013 -9.54166e-015
rhumerus -30.2449 1.30986 -72.3803
rradius 47.214
rwrist 24.783
rhand -36.5586 -21.7078
rfingers 7.12502
rthumb -9.64878 -411.467
lclavicle 1.08934e-013 -9.54166e-015
lhumerus -35.7429 -32.446 98.918
lradius 47.6686
lwrist -12.2452
lhand -47.272 7.18413
lfingers 7.12502
lthumb -19.9688 36.1781
rfemur 3.89968 -18.1685 -7.90755
rtibia 38.9912
rfoot -23.5782 -25.1579
rtoes -7.11469
lfemur -18.3291 19.029 -16.8583
ltibia 48.5559
lfoot -28.0984 -7.13088
ltoes -11.18
236
root 8.17327 16.0674 1.95186 170.926 225.621 -172.686
lowerback 13.9329 1.30535 4.23343
upperback 6.5238 2.12296 1.95228
thorax -0.845293 1.04787 -0.648463
lowerneck -21.2607 10.106 2.14194
upperneck 7.3244 14.812 -13.4149
head 6.90831 6.0661 -2.81096
rclavicle -5.92378e-014 -6.36111e-015
rhumerus -29.4296 0.675103 -72.7509
rradius 47.2477
rwrist 23.3344
rhand -36.1121 -23.0851
rfingers 7.12502
rthumb -9.218 -412.864
lclavicle -5.92378e-014 -6.36111e-015
lhumerus -33.8585 -33.2518 98.4539
lradius 45.6339
lwrist -13.1885
lhand -46.9986 6.85374
lfingers 7.12502
lthumb -19.7059 35.8749
rfemur 4.05688 -16.7496 -7.02325
rtibia 39.9383
rfoot -23.3309 -25.1811
rtoes -7.03377
lfemur -17.9868 20.1188 -16.6331
ltibia 48.7342
lfoot -28.8857 -9.29618
ltoes -11.0749
237
root 8.17094 16.0805 2.12309 171.515 224.439 -173.824
lowerback 13.4144 1.23302 5.02069
upperback 6.85839 2.07081 1.9278
thorax -0.181111 1.05599 -1.08587
lowerneck -21.2434 10.1667 2.56291
upperneck 7.79604 14.9503 -13.9987
head 7.15926 6.06811 -3.02851
rclavicle 4.73108e-014 -3.18055e-014
rhumerus -28.4316 1.06694 -73.5864
rradius 47.4406
rwrist 19.92
rhand -35.8678 -24.7232
rfingers 7.12502
rthumb -8.98224 -414.512
lclavicle 4.73108e-014 -3.18055e-014
lhumerus -32.0598 -33.9667 98.0524
lradius 44.0921
lwrist -14.2296
lhand -46.4665 6.76329
lfingers 7.12502
lthumb -19.1944 35.8361
rfemur 4.12712 -15.5344 -5.98608
rtibia 40.918
rfoot -22.4547 -24.5751
rtoes -7.15744
lfemur -17.3775 20.6568 -16.1742
ltibia 48.7586
lfoot -29.5893 -10.8096
ltoes -10.9399
238
root 8.16676 16.1 2.29528 172.105 223.221 -174.784
lowerback 12.8563 1.08902 5.57061
upperback 7.08578 1.8931 1.92693
thorax 0.372651 0.997928 -1.35224
lowerneck -21.4381 10.3243 2.70427
upperneck 8.49054 15.2452 -14.0419
head 7.4585 6.16072 -3.00132
rclavicle -2.70347e-014 -4.77083e-015
rhumerus -27.4095 2.41494 -74.4486
rradius 47.3751
rwrist 17.3751
rhand -35.4657 -26.9962
rfingers 7.12502
rthumb -8.59422 -416.801
lclavicle -2.70347e-014 -4.77083e-015
lhumerus -30.4234 -33.9545 97.7752
lradius 42.9637
lwrist -15.2703
lhand -45.6624 6.44636
lfingers 7.12502
lthumb -18.421 35.5942
rfemur 3.91138 -14.6962 -5.07014
rtibia 42.0531
rfoot -21.4856 -23.502
rtoes -7.58768
lfemur -16.8773 20.4129 -15.938
ltibia 48.709
lfoot -30.201 -11.6327
ltoes -10.7632
239
root 8.15949 16.1189 2.47369 172.395 221.995 -175.157
lowerback 12.2478 0.976991 5.73214
upperback 7.19562 1.71726 1.83766
thorax 0.814154 0.931654 -1.49803
lowerneck -21.9079 10.4141 2.52194
upperneck 9.4631 15.4698 -13.4628
head 7.80317 6.23732 -2.72554
rclavicle -1.98785e-015 -3.33958e-014
rhumerus -26.7524 4.52338 -75.2982
rradius 47.8613
rwrist 14.3696
rhand -35.251 -29.3576
rfingers 7.12502
rthumb -8.38703 -419.171
lclavicle -1.98785e-015 -3.33958e-014
lhumerus -29.2101 -33.9009 97.7408
lradius 41.8005
lwrist -18.0672
lhand -45.4247 7.22069
lfingers 7.12502
lthumb -18.1923 36.3899
rfemur 3.47033 -13.8265 -4.58625
rtibia 43.2917
rfoot -20.8028 -21.9188
rtoes -8.03016
lfemur -16.401 19.3037 -16.3329
ltibia 48.5428
lfoot -30.6766 -11.4271
ltoes -10.9527
240
root 8.1448 16.1291 2.6463 172.546 220.615 -175.432
lowerback 11.792 0.769297 5.63026
upperback 7.23697 1.40481 1.75052
thorax 1.08069 0.784334 -1.48845
lowerneck -21.9435 10.6963 2.79548
upperneck 10.0174 15.8406 -13.3229
head 8.02959 6.40415 -2.65234
rclavicle 4.17448e-014 -2.06736e-014
rhumerus -26.3595 5.9971 -76.156
rradius 48.4141
rwrist 12.4296
rhand -34.5953 -30.0594
rfingers 7.12502
rthumb -7.7542 -419.897
lclavicle 4.17448e-014 -2.06736e-014
lhumerus -28.2609 -33.7125 97.9834
lradius 42.038
lwrist -15.748
lhand -43.789 5.46202
lfingers 7.12502
lthumb -16.618 34.7706
rfemur 3.06139 -13.3972 -4.25258
rtibia 44.692
rfoot -20.3541 -20.126
rtoes -8.38175
lfemur -15.8225 17.6817 -16.8279
ltibia 48.3289
lfoot -31.2195 -10.6143
ltoes -11.3142
241
root 8.11943 16.1483 2.81984 172.41 219.417 -175.361
lowerback 11.7156 0.704613 5.12905
upperback 7.06628 1.28529 1.66563
thorax 0.91778 0.708863 -1.28598
lowerneck -21.8834 10.8298 2.82415
upperneck 10.6132 16.0316 -12.9185
head 8.19405 6.50514 -2.49007
rclavicle 4.37326e-014 -4.77083e-015
rhumerus -26.7091 7.26091 -76.7857
rradius 48.9738
rwrist 11.6244
rhand -34.397 -29.7243
rfingers 7.12502
rthumb -7.56276 -419.569
lclavicle 4.37326e-014 -4.77083e-015
lhumerus -27.9781 -33.1368 98.4242
lradius 41.4079
lwrist -18.9861
lhand -43.5213 6.32791
lfingers 7.12502
lthumb -16.3603 35.6579
rfemur 2.46677 -12.5153 -3.93144
rtibia 46.1748
rfoot -19.7226 -18.6576
rtoes -9.25404
lfemur -15.0594 15.7264 -17.4872
ltibia 48.0218
lfoot -31.5235 -9.79909
ltoes -11.0887
242
root 8.0892 16.1606 2.984 172.461 218.312 -175.535
lowerback 11.6205 0.666997 4.59474
upperback 6.89902 1.19577 1.72213
thorax 0.768896 0.645425 -0.920367
lowerneck -21.8037 11.0301 2.9502
upperneck 11.0816 16.289 -12.6392
head 8.33863 6.63772 -2.37297
rclavicle -1.70955e-014 2.70347e-014
rhumerus -27.207 7.86247 -77.2161
rradius 49.6585
rwrist 11.926
rhand -33.6184 -28.8797
rfingers 7.12502
rthumb -6.81122 -418.75
lclavicle -1.70955e-014 2.70347e-014
lhumerus -28.0242 -33.1762 99.3752
lradius 41.729
lwrist -18.1578
lhand -43.1592 6.0877
lfingers 7.12502
lthumb -16.0117 35.446
rfemur 1.74126 -11.4913 -3.25818
rtibia 47.7212
rfoot -19.6782 -17.3672
rtoes -9.89394
lfemur -14.3398 13.8464 -17.9342
ltibia 47.6798
lfoot -31.7767 -8.94611
ltoes -11.0743
